<?xml version="1.0" standalone="no"?>
<svg viewBox="0 0 200 200" xmlns="http://www.w3.org/2000/svg">
  <path fill="#000000" d="M43.5,-67.7C58.5,-58.2,74,-49.5,81.6,-36.3C89.3,-23,88.9,-5.1,85.3,11.5C81.7,28.1,74.8,43.4,63.8,54.2C52.8,64.9,37.7,71,22.3,75.1C6.9,79.3,-8.9,81.6,-22.4,77.2C-36,72.9,-47.4,61.9,-58.3,50.1C-69.3,38.3,-79.8,25.6,-82,11.7C-84.2,-2.3,-78,-17.5,-70.7,-31.7C-63.4,-46,-54.9,-59.1,-43,-70C-31,-80.9,-15.5,-89.5,-0.6,-88.6C14.3,-87.7,28.6,-77.2,43.5,-67.7Z" transform="translate(100 100)" />
</svg>
